<svg width="1545" height="253" viewBox="0 0 1545 253" fill="none" xmlns="http://www.w3.org/2000/svg">
<path d="M242.526 19.0099C253.433 30.8851 259.937 65.8067 259.937 65.8067C259.937 65.8067 229.494 69.7769 199.747 57.1016C170 44.4263 138.115 19.0099 138.115 19.0099C138.115 19.0099 159.373 11.4291 171.642 8.60166C183.911 5.77419 191.89 2.13501 204.97 2.13501C218.05 2.135 231.62 7.13462 242.526 19.0099Z" fill="#7FC0E7"/>
<path d="M75.3688 2.17611C59.4217 -0.695 43.5013 -2.45959 25.5954 8.45188C18.8219 12.5795 13.0891 17.6303 6.72402 30.7964C0.0363398 44.6297 -0.68183 60.789 0.423371 70.5162C0.423371 70.5162 20.8051 85.7301 43.5783 93.9006C66.3514 102.071 96.5766 107.999 96.5766 107.999C146.445 119.095 189 113.277 206.944 110.379C224.887 107.482 234.657 105.626 253.44 97.2329C272.224 88.8403 285.679 72.9875 285.679 72.9875C285.679 72.9875 284.431 74.3781 261.262 79.866C238.092 85.3538 210.411 78.3162 184.438 65.3667C158.464 52.4173 149.931 43.6799 130.12 30.3089C110.308 16.9379 91.3159 5.04721 75.3688 2.17611Z" fill="#4EA3D6"/>
<path d="M140.582 130.278C72.611 130.278 1.97333 89.6162 1.97333 89.6162L4.67908 105.498C5.54586 106.442 30.1868 125.274 68.8365 141.199C113.532 159.616 142.383 161.653 142.383 161.653C142.383 161.653 169.519 165.545 186.991 165.203C203.712 164.875 224.132 163.661 239.768 157.729L255.466 108.113C242.907 114.393 208.552 130.278 140.582 130.278Z" fill="#1A75AC"/>
<path d="M28.1127 185.42C17.6912 160.483 6.78204 119.582 6.78204 119.582C6.78204 119.582 28.918 136.029 58.4451 151.33C87.9722 166.63 106.194 170.657 106.194 170.657C106.194 170.657 141.926 181.662 169.845 183.004C197.764 184.346 234.534 178.709 234.534 178.709C234.534 178.709 229.702 194.278 217.891 216.289C206.081 238.3 196.686 245.74 196.686 245.74C196.686 245.74 191.891 250.398 183.533 250.38C175.174 250.361 169.845 245.74 169.845 245.74C169.845 245.74 162.595 242.058 155.348 230.248C148.1 218.437 138.168 218.437 138.168 218.437C138.168 218.437 129.31 218.437 119.915 230.248C110.52 242.058 106.194 245.74 106.194 245.74C106.194 245.74 101.049 252.527 87.9722 252.527C74.8954 252.527 60.0555 235.885 60.0555 235.885C60.0555 235.885 43.1447 221.389 28.1127 185.42Z" fill="#084D76"/>
<path d="M349.286 160.643V217.518H344.833V160.643H349.286ZM365.458 160.643V164.823H328.7V160.643H365.458ZM380.075 157.518V217.518H375.739V157.518H380.075ZM379.098 193.768L377.184 192.635C377.288 190.135 377.692 187.792 378.395 185.604C379.124 183.417 380.114 181.49 381.364 179.823C382.614 178.13 384.085 176.815 385.778 175.878C387.471 174.94 389.346 174.471 391.403 174.471C393.148 174.471 394.723 174.758 396.129 175.331C397.536 175.904 398.721 176.802 399.684 178.026C400.674 179.25 401.429 180.852 401.95 182.831C402.471 184.81 402.731 187.193 402.731 189.979V217.518H398.395V189.94C398.395 187.049 398.07 184.784 397.419 183.143C396.767 181.503 395.83 180.344 394.606 179.667C393.408 178.964 391.963 178.612 390.27 178.612C388.473 178.612 386.885 179.094 385.504 180.057C384.15 181.021 382.991 182.271 382.028 183.807C381.09 185.344 380.374 186.997 379.879 188.768C379.385 190.513 379.124 192.18 379.098 193.768ZM430.2 218.339C427.856 218.339 425.695 217.961 423.715 217.206C421.762 216.424 420.07 215.253 418.637 213.69C417.231 212.102 416.137 210.109 415.356 207.714C414.575 205.292 414.184 202.44 414.184 199.159V194.276C414.184 190.786 414.601 187.792 415.434 185.292C416.267 182.766 417.387 180.708 418.794 179.12C420.226 177.505 421.853 176.333 423.676 175.604C425.499 174.849 427.426 174.471 429.458 174.471C431.775 174.471 433.807 174.849 435.551 175.604C437.322 176.359 438.807 177.505 440.004 179.042C441.202 180.578 442.101 182.518 442.7 184.862C443.299 187.18 443.598 189.927 443.598 193.104V196.737H416.801V192.674H439.262V191.581C439.21 188.82 438.82 186.477 438.09 184.549C437.387 182.596 436.32 181.112 434.887 180.096C433.481 179.055 431.684 178.534 429.497 178.534C427.882 178.534 426.398 178.833 425.044 179.432C423.689 180.005 422.517 180.917 421.528 182.167C420.564 183.417 419.822 185.044 419.301 187.049C418.807 189.055 418.559 191.464 418.559 194.276V199.159C418.559 201.737 418.833 203.977 419.379 205.878C419.952 207.753 420.76 209.315 421.801 210.565C422.843 211.789 424.093 212.714 425.551 213.339C427.01 213.937 428.624 214.237 430.395 214.237C432.583 214.237 434.497 213.872 436.137 213.143C437.778 212.388 439.236 211.255 440.512 209.745L442.817 212.635C442.036 213.651 441.072 214.602 439.926 215.487C438.78 216.346 437.413 217.036 435.825 217.557C434.236 218.078 432.361 218.339 430.2 218.339ZM479.239 183.378V233.768H474.903V175.253H478.926L479.239 183.378ZM503.77 194.432V198.378C503.77 201.789 503.471 204.745 502.872 207.245C502.273 209.745 501.387 211.815 500.215 213.456C499.044 215.096 497.611 216.32 495.919 217.128C494.252 217.935 492.351 218.339 490.215 218.339C488.106 218.339 486.244 217.974 484.629 217.245C483.015 216.516 481.635 215.487 480.489 214.159C479.369 212.805 478.471 211.229 477.794 209.432C477.116 207.609 476.648 205.604 476.387 203.417V190.409C476.674 188.013 477.169 185.839 477.872 183.885C478.575 181.932 479.486 180.253 480.606 178.846C481.726 177.44 483.067 176.359 484.629 175.604C486.218 174.849 488.041 174.471 490.098 174.471C492.286 174.471 494.226 174.849 495.919 175.604C497.611 176.333 499.044 177.505 500.215 179.12C501.387 180.708 502.273 182.779 502.872 185.331C503.471 187.857 503.77 190.891 503.77 194.432ZM499.434 198.378V194.432C499.434 191.698 499.226 189.354 498.809 187.401C498.392 185.422 497.754 183.781 496.895 182.479C496.062 181.177 494.981 180.214 493.653 179.589C492.351 178.937 490.814 178.612 489.044 178.612C487.247 178.612 485.697 178.95 484.395 179.628C483.119 180.279 482.051 181.151 481.192 182.245C480.359 183.339 479.682 184.536 479.161 185.839C478.666 187.115 478.301 188.378 478.067 189.628V204.432C478.51 206.151 479.174 207.766 480.059 209.276C480.945 210.786 482.129 211.997 483.614 212.909C485.098 213.794 486.934 214.237 489.122 214.237C490.892 214.237 492.416 213.924 493.692 213.299C494.994 212.648 496.062 211.672 496.895 210.37C497.754 209.042 498.392 207.388 498.809 205.409C499.226 203.43 499.434 201.086 499.434 198.378ZM520.184 182.206V217.518H515.848V175.253H520.067L520.184 182.206ZM532.489 174.979L532.372 179.315C531.903 179.211 531.46 179.146 531.044 179.12C530.627 179.068 530.171 179.042 529.676 179.042C528.036 179.042 526.603 179.406 525.379 180.135C524.155 180.865 523.114 181.893 522.254 183.221C521.421 184.523 520.77 186.047 520.301 187.792C519.859 189.51 519.598 191.372 519.52 193.378L517.997 194.042C517.997 191.307 518.231 188.755 518.7 186.385C519.169 184.016 519.885 181.932 520.848 180.135C521.838 178.339 523.075 176.945 524.559 175.956C526.07 174.966 527.84 174.471 529.872 174.471C530.34 174.471 530.822 174.523 531.317 174.628C531.838 174.706 532.228 174.823 532.489 174.979ZM561.989 209.94V186.932C561.989 184.953 561.65 183.352 560.973 182.128C560.296 180.878 559.307 179.966 558.004 179.393C556.702 178.82 555.101 178.534 553.2 178.534C551.403 178.534 549.801 178.898 548.395 179.628C547.015 180.331 545.934 181.32 545.153 182.596C544.398 183.846 544.02 185.292 544.02 186.932L539.684 186.893C539.684 185.279 540.01 183.729 540.661 182.245C541.312 180.734 542.236 179.406 543.434 178.26C544.632 177.089 546.064 176.164 547.731 175.487C549.424 174.81 551.299 174.471 553.356 174.471C555.882 174.471 558.122 174.875 560.075 175.682C562.028 176.49 563.551 177.818 564.645 179.667C565.765 181.516 566.325 183.964 566.325 187.01V208.612C566.325 210.096 566.416 211.62 566.598 213.182C566.807 214.745 567.08 216.021 567.419 217.01V217.518H562.809C562.523 216.607 562.314 215.448 562.184 214.042C562.054 212.609 561.989 211.242 561.989 209.94ZM562.887 192.831L563.004 196.542H555.504C553.473 196.542 551.689 196.763 550.153 197.206C548.616 197.648 547.327 198.286 546.286 199.12C545.27 199.953 544.502 200.943 543.981 202.089C543.46 203.234 543.2 204.536 543.2 205.995C543.2 207.87 543.499 209.406 544.098 210.604C544.697 211.776 545.57 212.648 546.715 213.221C547.887 213.768 549.28 214.042 550.895 214.042C553.03 214.042 554.905 213.625 556.52 212.792C558.161 211.932 559.502 210.799 560.544 209.393C561.585 207.961 562.262 206.45 562.575 204.862L563.747 207.518C563.486 208.716 563.004 209.94 562.301 211.19C561.598 212.44 560.687 213.612 559.567 214.706C558.447 215.773 557.119 216.646 555.583 217.323C554.046 218 552.314 218.339 550.387 218.339C548.07 218.339 546.038 217.896 544.294 217.01C542.575 216.125 541.234 214.784 540.27 212.987C539.333 211.19 538.864 208.977 538.864 206.346C538.864 204.393 539.189 202.596 539.84 200.956C540.517 199.315 541.52 197.896 542.848 196.698C544.176 195.474 545.843 194.523 547.848 193.846C549.853 193.169 552.184 192.831 554.84 192.831H562.887ZM593.559 214.237C595.174 214.237 596.684 213.937 598.09 213.339C599.523 212.74 600.695 211.724 601.606 210.292C602.517 208.859 603.038 206.893 603.169 204.393H607.309C607.205 207.414 606.515 209.966 605.239 212.049C603.963 214.107 602.309 215.669 600.278 216.737C598.247 217.805 596.007 218.339 593.559 218.339C591.033 218.339 588.82 217.922 586.919 217.089C585.017 216.255 583.429 215.018 582.153 213.378C580.877 211.711 579.913 209.667 579.262 207.245C578.611 204.797 578.286 201.971 578.286 198.768V193.964C578.286 190.786 578.611 187.987 579.262 185.565C579.913 183.117 580.877 181.073 582.153 179.432C583.429 177.792 585.017 176.555 586.919 175.721C588.82 174.888 591.033 174.471 593.559 174.471C596.137 174.471 598.442 175.018 600.473 176.112C602.504 177.18 604.119 178.82 605.317 181.034C606.541 183.247 607.205 186.073 607.309 189.51H603.169C603.064 186.88 602.57 184.771 601.684 183.182C600.825 181.568 599.692 180.396 598.286 179.667C596.879 178.911 595.304 178.534 593.559 178.534C591.554 178.534 589.848 178.885 588.442 179.589C587.062 180.266 585.942 181.268 585.083 182.596C584.223 183.924 583.598 185.539 583.208 187.44C582.817 189.341 582.622 191.516 582.622 193.964V198.768C582.622 201.242 582.817 203.443 583.208 205.37C583.598 207.297 584.223 208.924 585.083 210.253C585.968 211.555 587.101 212.544 588.481 213.221C589.887 213.898 591.58 214.237 593.559 214.237ZM632.278 175.253V179.159H614.231V175.253H632.278ZM620.715 164.432H625.09V207.206C625.09 209.159 625.299 210.63 625.715 211.62C626.132 212.609 626.679 213.273 627.356 213.612C628.033 213.924 628.762 214.081 629.544 214.081C630.142 214.081 630.702 214.042 631.223 213.964C631.77 213.885 632.252 213.781 632.669 213.651L632.825 217.635C632.33 217.844 631.692 218 630.911 218.104C630.155 218.234 629.348 218.299 628.489 218.299C627.03 218.299 625.715 217.961 624.544 217.284C623.372 216.581 622.434 215.422 621.731 213.807C621.054 212.193 620.715 209.979 620.715 207.167V164.432ZM648.653 175.253V217.518H644.317V175.253H648.653ZM643.653 163.104C643.653 162.167 643.9 161.398 644.395 160.799C644.916 160.174 645.632 159.862 646.544 159.862C647.429 159.862 648.119 160.174 648.614 160.799C649.135 161.398 649.395 162.167 649.395 163.104C649.395 163.964 649.135 164.693 648.614 165.292C648.119 165.891 647.429 166.19 646.544 166.19C645.632 166.19 644.916 165.891 644.395 165.292C643.9 164.693 643.653 163.964 643.653 163.104ZM676.122 214.237C677.736 214.237 679.247 213.937 680.653 213.339C682.085 212.74 683.257 211.724 684.169 210.292C685.08 208.859 685.601 206.893 685.731 204.393H689.872C689.767 207.414 689.077 209.966 687.801 212.049C686.525 214.107 684.872 215.669 682.84 216.737C680.809 217.805 678.57 218.339 676.122 218.339C673.596 218.339 671.382 217.922 669.481 217.089C667.58 216.255 665.991 215.018 664.715 213.378C663.439 211.711 662.476 209.667 661.825 207.245C661.174 204.797 660.848 201.971 660.848 198.768V193.964C660.848 190.786 661.174 187.987 661.825 185.565C662.476 183.117 663.439 181.073 664.715 179.432C665.991 177.792 667.58 176.555 669.481 175.721C671.382 174.888 673.596 174.471 676.122 174.471C678.7 174.471 681.004 175.018 683.036 176.112C685.067 177.18 686.682 178.82 687.879 181.034C689.103 183.247 689.767 186.073 689.872 189.51H685.731C685.627 186.88 685.132 184.771 684.247 183.182C683.387 181.568 682.254 180.396 680.848 179.667C679.442 178.911 677.866 178.534 676.122 178.534C674.116 178.534 672.411 178.885 671.004 179.589C669.624 180.266 668.504 181.268 667.645 182.596C666.786 183.924 666.161 185.539 665.77 187.44C665.379 189.341 665.184 191.516 665.184 193.964V198.768C665.184 201.242 665.379 203.443 665.77 205.37C666.161 207.297 666.786 208.924 667.645 210.253C668.53 211.555 669.663 212.544 671.044 213.221C672.45 213.898 674.142 214.237 676.122 214.237ZM715.075 218.339C712.731 218.339 710.57 217.961 708.59 217.206C706.637 216.424 704.945 215.253 703.512 213.69C702.106 212.102 701.012 210.109 700.231 207.714C699.45 205.292 699.059 202.44 699.059 199.159V194.276C699.059 190.786 699.476 187.792 700.309 185.292C701.142 182.766 702.262 180.708 703.669 179.12C705.101 177.505 706.728 176.333 708.551 175.604C710.374 174.849 712.301 174.471 714.333 174.471C716.65 174.471 718.682 174.849 720.426 175.604C722.197 176.359 723.682 177.505 724.879 179.042C726.077 180.578 726.976 182.518 727.575 184.862C728.174 187.18 728.473 189.927 728.473 193.104V196.737H701.676V192.674H724.137V191.581C724.085 188.82 723.695 186.477 722.965 184.549C722.262 182.596 721.195 181.112 719.762 180.096C718.356 179.055 716.559 178.534 714.372 178.534C712.757 178.534 711.273 178.833 709.919 179.432C708.564 180.005 707.392 180.917 706.403 182.167C705.439 183.417 704.697 185.044 704.176 187.049C703.682 189.055 703.434 191.464 703.434 194.276V199.159C703.434 201.737 703.708 203.977 704.254 205.878C704.827 207.753 705.635 209.315 706.676 210.565C707.718 211.789 708.968 212.714 710.426 213.339C711.885 213.937 713.499 214.237 715.27 214.237C717.458 214.237 719.372 213.872 721.012 213.143C722.653 212.388 724.111 211.255 725.387 209.745L727.692 212.635C726.911 213.651 725.947 214.602 724.801 215.487C723.655 216.346 722.288 217.036 720.7 217.557C719.111 218.078 717.236 218.339 715.075 218.339ZM770.247 213.26L781.106 175.253H785.754L770.872 224.276C770.559 225.24 770.155 226.307 769.661 227.479C769.192 228.677 768.567 229.81 767.786 230.878C767.03 231.971 766.08 232.857 764.934 233.534C763.814 234.237 762.447 234.589 760.833 234.589C760.416 234.589 759.869 234.523 759.192 234.393C758.515 234.289 758.033 234.185 757.747 234.081L757.708 230.096C757.942 230.148 758.28 230.2 758.723 230.253C759.166 230.305 759.478 230.331 759.661 230.331C761.067 230.331 762.252 230.044 763.215 229.471C764.179 228.898 764.986 228.039 765.637 226.893C766.314 225.773 766.9 224.38 767.395 222.714L770.247 213.26ZM760.559 175.253L771.419 211.424L772.59 216.385L769.426 218.339L755.794 175.253H760.559ZM793.067 198.573V194.198C793.067 190.995 793.432 188.169 794.161 185.721C794.916 183.273 795.971 181.216 797.325 179.549C798.705 177.857 800.346 176.594 802.247 175.76C804.148 174.901 806.231 174.471 808.497 174.471C810.814 174.471 812.911 174.901 814.786 175.76C816.687 176.594 818.314 177.857 819.669 179.549C821.049 181.216 822.116 183.273 822.872 185.721C823.627 188.169 824.004 190.995 824.004 194.198V198.573C824.004 201.776 823.627 204.615 822.872 207.089C822.116 209.536 821.049 211.594 819.669 213.26C818.314 214.927 816.687 216.19 814.786 217.049C812.911 217.909 810.827 218.339 808.536 218.339C806.244 218.339 804.148 217.909 802.247 217.049C800.372 216.19 798.744 214.927 797.364 213.26C795.984 211.568 794.916 209.497 794.161 207.049C793.432 204.602 793.067 201.776 793.067 198.573ZM797.442 194.198V198.573C797.442 200.995 797.676 203.169 798.145 205.096C798.64 207.023 799.369 208.664 800.333 210.018C801.296 211.372 802.455 212.414 803.809 213.143C805.189 213.872 806.765 214.237 808.536 214.237C810.411 214.237 812.038 213.872 813.419 213.143C814.825 212.414 815.984 211.372 816.895 210.018C817.833 208.664 818.523 207.023 818.965 205.096C819.434 203.169 819.669 200.995 819.669 198.573V194.198C819.669 191.828 819.421 189.68 818.926 187.753C818.432 185.825 817.689 184.185 816.7 182.831C815.736 181.45 814.564 180.396 813.184 179.667C811.804 178.911 810.241 178.534 808.497 178.534C806.778 178.534 805.228 178.911 803.848 179.667C802.468 180.396 801.296 181.45 800.333 182.831C799.395 184.185 798.679 185.825 798.184 187.753C797.689 189.68 797.442 191.828 797.442 194.198ZM858.583 207.753V175.253H862.919V217.518H858.7L858.583 207.753ZM859.364 199.862L861.473 199.784C861.473 202.44 861.2 204.901 860.653 207.167C860.132 209.406 859.312 211.359 858.192 213.026C857.098 214.693 855.666 215.995 853.895 216.932C852.15 217.844 850.028 218.299 847.528 218.299C845.783 218.299 844.182 218 842.723 217.401C841.291 216.802 840.067 215.878 839.051 214.628C838.036 213.352 837.241 211.711 836.669 209.706C836.122 207.674 835.848 205.214 835.848 202.323V175.253H840.184V202.401C840.184 204.615 840.392 206.49 840.809 208.026C841.226 209.536 841.799 210.734 842.528 211.62C843.283 212.505 844.129 213.143 845.067 213.534C846.004 213.924 847.007 214.12 848.075 214.12C850.913 214.12 853.14 213.456 854.754 212.128C856.395 210.799 857.567 209.055 858.27 206.893C858.999 204.732 859.364 202.388 859.364 199.862ZM910.278 175.253V179.159H892.231V175.253H910.278ZM898.715 164.432H903.09V207.206C903.09 209.159 903.299 210.63 903.715 211.62C904.132 212.609 904.679 213.273 905.356 213.612C906.033 213.924 906.762 214.081 907.544 214.081C908.142 214.081 908.702 214.042 909.223 213.964C909.77 213.885 910.252 213.781 910.669 213.651L910.825 217.635C910.33 217.844 909.692 218 908.911 218.104C908.155 218.234 907.348 218.299 906.489 218.299C905.03 218.299 903.715 217.961 902.544 217.284C901.372 216.581 900.434 215.422 899.731 213.807C899.054 212.193 898.715 209.979 898.715 207.167V164.432ZM926.184 182.206V217.518H921.848V175.253H926.067L926.184 182.206ZM938.489 174.979L938.372 179.315C937.903 179.211 937.46 179.146 937.044 179.12C936.627 179.068 936.171 179.042 935.676 179.042C934.036 179.042 932.603 179.406 931.379 180.135C930.155 180.865 929.114 181.893 928.254 183.221C927.421 184.523 926.77 186.047 926.301 187.792C925.859 189.51 925.598 191.372 925.52 193.378L923.997 194.042C923.997 191.307 924.231 188.755 924.7 186.385C925.169 184.016 925.885 181.932 926.848 180.135C927.838 178.339 929.075 176.945 930.559 175.956C932.07 174.966 933.84 174.471 935.872 174.471C936.34 174.471 936.822 174.523 937.317 174.628C937.838 174.706 938.228 174.823 938.489 174.979ZM970.645 207.753V175.253H974.981V217.518H970.762L970.645 207.753ZM971.426 199.862L973.536 199.784C973.536 202.44 973.262 204.901 972.715 207.167C972.195 209.406 971.374 211.359 970.254 213.026C969.161 214.693 967.728 215.995 965.958 216.932C964.213 217.844 962.09 218.299 959.59 218.299C957.846 218.299 956.244 218 954.786 217.401C953.353 216.802 952.129 215.878 951.114 214.628C950.098 213.352 949.304 211.711 948.731 209.706C948.184 207.674 947.911 205.214 947.911 202.323V175.253H952.247V202.401C952.247 204.615 952.455 206.49 952.872 208.026C953.288 209.536 953.861 210.734 954.59 211.62C955.346 212.505 956.192 213.143 957.129 213.534C958.067 213.924 959.07 214.12 960.137 214.12C962.976 214.12 965.202 213.456 966.817 212.128C968.458 210.799 969.629 209.055 970.333 206.893C971.062 204.732 971.426 202.388 971.426 199.862ZM1009.75 207.128C1009.75 205.956 1009.44 204.888 1008.82 203.924C1008.22 202.961 1007.22 202.01 1005.81 201.073C1004.43 200.135 1002.54 199.12 1000.15 198.026C998.244 197.167 996.538 196.333 995.028 195.526C993.517 194.719 992.241 193.859 991.2 192.948C990.184 192.036 989.39 191.008 988.817 189.862C988.27 188.69 987.997 187.31 987.997 185.721C987.997 184.133 988.296 182.661 988.895 181.307C989.494 179.953 990.34 178.768 991.434 177.753C992.554 176.711 993.882 175.904 995.419 175.331C996.981 174.758 998.726 174.471 1000.65 174.471C1003.41 174.471 1005.77 175.005 1007.72 176.073C1009.68 177.115 1011.19 178.56 1012.25 180.409C1013.32 182.258 1013.86 184.393 1013.86 186.815H1009.48C1009.48 185.357 1009.13 184.003 1008.43 182.753C1007.75 181.503 1006.76 180.487 1005.46 179.706C1004.16 178.924 1002.55 178.534 1000.65 178.534C998.7 178.534 997.098 178.885 995.848 179.589C994.624 180.266 993.726 181.138 993.153 182.206C992.606 183.273 992.333 184.393 992.333 185.565C992.333 186.424 992.463 187.193 992.723 187.87C993.01 188.521 993.478 189.159 994.129 189.784C994.807 190.383 995.744 191.021 996.942 191.698C998.166 192.349 999.676 193.13 1001.47 194.042C1004.08 195.161 1006.32 196.281 1008.19 197.401C1010.07 198.495 1011.51 199.784 1012.53 201.268C1013.54 202.727 1014.05 204.575 1014.05 206.815C1014.05 208.56 1013.74 210.148 1013.11 211.581C1012.49 212.987 1011.6 214.198 1010.46 215.214C1009.31 216.203 1007.92 216.971 1006.28 217.518C1004.66 218.039 1002.87 218.299 1000.89 218.299C997.866 218.299 995.301 217.727 993.192 216.581C991.109 215.435 989.52 213.924 988.426 212.049C987.359 210.174 986.825 208.143 986.825 205.956H991.161C991.265 208.169 991.812 209.875 992.801 211.073C993.817 212.271 995.054 213.091 996.512 213.534C997.971 213.977 999.429 214.198 1000.89 214.198C1002.79 214.198 1004.4 213.885 1005.73 213.26C1007.06 212.635 1008.06 211.789 1008.74 210.721C1009.42 209.628 1009.75 208.43 1009.75 207.128ZM1040.07 175.253V179.159H1022.03V175.253H1040.07ZM1028.51 164.432H1032.89V207.206C1032.89 209.159 1033.1 210.63 1033.51 211.62C1033.93 212.609 1034.48 213.273 1035.15 213.612C1035.83 213.924 1036.56 214.081 1037.34 214.081C1037.94 214.081 1038.5 214.042 1039.02 213.964C1039.57 213.885 1040.05 213.781 1040.47 213.651L1040.62 217.635C1040.13 217.844 1039.49 218 1038.71 218.104C1037.95 218.234 1037.15 218.299 1036.29 218.299C1034.83 218.299 1033.51 217.961 1032.34 217.284C1031.17 216.581 1030.23 215.422 1029.53 213.807C1028.85 212.193 1028.51 209.979 1028.51 207.167V164.432Z" fill="#3395D0"/>
<path d="M378.514 90.5758H394.574C394.252 95.8395 392.801 100.512 390.223 104.594C387.681 108.676 384.118 111.863 379.535 114.155C374.987 116.447 369.509 117.592 363.099 117.592C358.086 117.592 353.592 116.733 349.618 115.014C345.643 113.26 342.241 110.753 339.413 107.495C336.62 104.236 334.489 100.297 333.021 95.6783C331.553 91.0592 330.819 85.8851 330.819 80.1559V74.7311C330.819 69.0019 331.571 63.8278 333.075 59.2086C334.614 54.5537 336.799 50.597 339.628 47.3385C342.492 44.08 345.912 41.5735 349.886 39.819C353.861 38.0644 358.301 37.1871 363.207 37.1871C369.724 37.1871 375.22 38.3688 379.696 40.7321C384.208 43.0953 387.699 46.3538 390.169 50.5074C392.676 54.6611 394.18 59.3877 394.681 64.6871H378.568C378.389 61.5361 377.762 58.8684 376.688 56.6842C375.614 54.4642 373.985 52.7991 371.8 51.6891C369.652 50.5433 366.787 49.9703 363.207 49.9703C360.521 49.9703 358.176 50.4716 356.17 51.4742C354.165 52.4768 352.482 53.9987 351.122 56.0397C349.761 58.0807 348.74 60.6588 348.06 63.774C347.416 66.8535 347.093 70.47 347.093 74.6237V80.1559C347.093 84.2021 347.398 87.7649 348.006 90.8444C348.615 93.888 349.546 96.4661 350.799 98.5787C352.088 100.656 353.736 102.231 355.741 103.305C357.782 104.344 360.235 104.863 363.099 104.863C366.465 104.863 369.24 104.326 371.424 103.252C373.609 102.177 375.274 100.584 376.419 98.4713C377.601 96.3587 378.299 93.7268 378.514 90.5758ZM405.155 38.3151H434.32C440.3 38.3151 445.438 39.2102 449.735 41.0006C454.068 42.791 457.398 45.4407 459.725 48.9498C462.053 52.4589 463.216 56.7737 463.216 61.8942C463.216 66.0836 462.5 69.6823 461.068 72.6901C459.671 75.6621 457.684 78.1507 455.106 80.1559C452.564 82.1253 449.574 83.7008 446.136 84.8824L441.034 87.568H415.682L415.575 74.9996H434.427C437.256 74.9996 439.601 74.4983 441.463 73.4957C443.325 72.4931 444.722 71.0966 445.653 69.3063C446.62 67.5159 447.103 65.4391 447.103 63.0758C447.103 60.5693 446.638 58.403 445.707 56.5768C444.776 54.7506 443.361 53.3541 441.463 52.3873C439.566 51.4205 437.184 50.9371 434.32 50.9371H421.268V116.518H405.155V38.3151ZM448.876 116.518L431.044 81.6598L448.07 81.5524L466.117 115.766V116.518H448.876ZM539.862 75.5905V79.2965C539.862 85.2405 539.056 90.5758 537.445 95.3024C535.834 100.029 533.56 104.057 530.624 107.387C527.687 110.682 524.178 113.206 520.096 114.961C516.05 116.715 511.556 117.592 506.615 117.592C501.709 117.592 497.215 116.715 493.133 114.961C489.087 113.206 485.578 110.682 482.606 107.387C479.634 104.057 477.324 100.029 475.677 95.3024C474.066 90.5758 473.26 85.2405 473.26 79.2965V75.5905C473.26 69.6106 474.066 64.2753 475.677 59.5846C477.289 54.858 479.562 50.8297 482.499 47.4996C485.471 44.1696 488.98 41.6272 493.026 39.8727C497.108 38.1181 501.602 37.2408 506.507 37.2408C511.449 37.2408 515.943 38.1181 519.989 39.8727C524.071 41.6272 527.58 44.1696 530.516 47.4996C533.488 50.8297 535.78 54.858 537.391 59.5846C539.038 64.2753 539.862 69.6106 539.862 75.5905ZM523.587 79.2965V75.483C523.587 71.3294 523.211 67.677 522.46 64.526C521.708 61.375 520.598 58.7252 519.129 56.5768C517.661 54.4283 515.871 52.817 513.758 51.7428C511.646 50.6328 509.229 50.0778 506.507 50.0778C503.786 50.0778 501.369 50.6328 499.256 51.7428C497.18 52.817 495.407 54.4283 493.939 56.5768C492.507 58.7252 491.415 61.375 490.663 64.526C489.911 67.677 489.535 71.3294 489.535 75.483V79.2965C489.535 83.4143 489.911 87.0667 490.663 90.2535C491.415 93.4046 492.525 96.0722 493.993 98.2565C495.461 100.405 497.251 102.034 499.364 103.144C501.476 104.254 503.893 104.809 506.615 104.809C509.336 104.809 511.753 104.254 513.866 103.144C515.978 102.034 517.751 100.405 519.183 98.2565C520.615 96.0722 521.708 93.4046 522.46 90.2535C523.211 87.0667 523.587 83.4143 523.587 79.2965ZM592.176 96.0543C592.176 94.6578 591.961 93.4046 591.532 92.2946C591.138 91.1487 590.386 90.1103 589.276 89.1793C588.166 88.2125 586.608 87.2636 584.603 86.3326C582.598 85.4017 580.002 84.4349 576.815 83.4323C573.27 82.2864 569.904 80.9974 566.717 79.5651C563.566 78.1328 560.773 76.4677 558.338 74.5699C555.939 72.6364 554.042 70.3984 552.645 67.8561C551.284 65.3138 550.604 62.3597 550.604 58.9938C550.604 55.7353 551.32 52.7812 552.753 50.1315C554.185 47.4459 556.19 45.1543 558.768 43.2565C561.346 41.3229 564.39 39.8369 567.899 38.7985C571.444 37.7601 575.329 37.2408 579.554 37.2408C585.319 37.2408 590.35 38.2793 594.647 40.3561C598.944 42.4329 602.274 45.2796 604.637 48.8961C607.036 52.5127 608.236 56.6484 608.236 61.3033H592.23C592.23 59.0117 591.747 57.0065 590.78 55.2877C589.849 53.5332 588.417 52.1546 586.483 51.152C584.585 50.1494 582.186 49.6481 579.286 49.6481C576.493 49.6481 574.165 50.0778 572.303 50.9371C570.441 51.7607 569.045 52.8886 568.114 54.3209C567.183 55.7174 566.717 57.2929 566.717 59.0475C566.717 60.3724 567.04 61.5719 567.684 62.6461C568.364 63.7203 569.367 64.7229 570.692 65.6539C572.017 66.5849 573.646 67.4622 575.58 68.2858C577.513 69.1093 579.751 69.915 582.294 70.7028C586.555 71.9918 590.296 73.442 593.519 75.0533C596.778 76.6647 599.499 78.4729 601.683 80.4781C603.867 82.4834 605.515 84.7571 606.625 87.2994C607.735 89.8418 608.29 92.7242 608.29 95.9469C608.29 99.3486 607.627 102.392 606.302 105.078C604.977 107.763 603.062 110.037 600.555 111.899C598.049 113.761 595.059 115.175 591.586 116.142C588.112 117.109 584.227 117.592 579.93 117.592C576.063 117.592 572.25 117.091 568.49 116.089C564.73 115.05 561.31 113.492 558.231 111.416C555.187 109.339 552.753 106.689 550.926 103.466C549.1 100.244 548.187 96.4303 548.187 92.026H564.354C564.354 94.4609 564.73 96.5198 565.482 98.2028C566.234 99.8857 567.29 101.246 568.651 102.285C570.047 103.323 571.695 104.075 573.592 104.541C575.526 105.006 577.639 105.239 579.93 105.239C582.723 105.239 585.015 104.845 586.805 104.057C588.631 103.269 589.974 102.177 590.834 100.781C591.729 99.3844 592.176 97.8089 592.176 96.0543ZM659.96 96.0543C659.96 94.6578 659.745 93.4046 659.315 92.2946C658.921 91.1487 658.169 90.1103 657.059 89.1793C655.949 88.2125 654.391 87.2636 652.386 86.3326C650.381 85.4017 647.785 84.4349 644.598 83.4323C641.053 82.2864 637.687 80.9974 634.501 79.5651C631.35 78.1328 628.557 76.4677 626.122 74.5699C623.723 72.6364 621.825 70.3984 620.428 67.8561C619.068 65.3138 618.387 62.3597 618.387 58.9938C618.387 55.7353 619.103 52.7812 620.536 50.1315C621.968 47.4459 623.973 45.1543 626.551 43.2565C629.129 41.3229 632.173 39.8369 635.682 38.7985C639.227 37.7601 643.112 37.2408 647.337 37.2408C653.102 37.2408 658.133 38.2793 662.43 40.3561C666.727 42.4329 670.057 45.2796 672.42 48.8961C674.82 52.5127 676.019 56.6484 676.019 61.3033H660.013C660.013 59.0117 659.53 57.0065 658.563 55.2877C657.632 53.5332 656.2 52.1546 654.266 51.152C652.368 50.1494 649.969 49.6481 647.069 49.6481C644.276 49.6481 641.948 50.0778 640.086 50.9371C638.225 51.7607 636.828 52.8886 635.897 54.3209C634.966 55.7174 634.501 57.2929 634.501 59.0475C634.501 60.3724 634.823 61.5719 635.467 62.6461C636.148 63.7203 637.15 64.7229 638.475 65.6539C639.8 66.5849 641.429 67.4622 643.363 68.2858C645.296 69.1093 647.534 69.915 650.077 70.7028C654.338 71.9918 658.08 73.442 661.302 75.0533C664.561 76.6647 667.282 78.4729 669.466 80.4781C671.651 82.4834 673.298 84.7571 674.408 87.2994C675.518 89.8418 676.073 92.7242 676.073 95.9469C676.073 99.3486 675.41 102.392 674.086 105.078C672.761 107.763 670.845 110.037 668.338 111.899C665.832 113.761 662.842 115.175 659.369 116.142C655.895 117.109 652.01 117.592 647.713 117.592C643.846 117.592 640.033 117.091 636.273 116.089C632.513 115.05 629.094 113.492 626.014 111.416C622.971 109.339 620.536 106.689 618.71 103.466C616.883 100.244 615.97 96.4303 615.97 92.026H632.137C632.137 94.4609 632.513 96.5198 633.265 98.2028C634.017 99.8857 635.073 101.246 636.434 102.285C637.831 103.323 639.478 104.075 641.376 104.541C643.309 105.006 645.422 105.239 647.713 105.239C650.506 105.239 652.798 104.845 654.588 104.057C656.415 103.269 657.757 102.177 658.617 100.781C659.512 99.3844 659.96 97.8089 659.96 96.0543ZM759.754 90.5758H775.814C775.492 95.8395 774.042 100.512 771.463 104.594C768.921 108.676 765.358 111.863 760.775 114.155C756.227 116.447 750.749 117.592 744.339 117.592C739.326 117.592 734.833 116.733 730.858 115.014C726.883 113.26 723.482 110.753 720.653 107.495C717.86 104.236 715.729 100.297 714.261 95.6783C712.793 91.0592 712.059 85.8851 712.059 80.1559V74.7311C712.059 69.0019 712.811 63.8278 714.315 59.2086C715.855 54.5537 718.039 50.597 720.868 47.3385C723.732 44.08 727.152 41.5735 731.127 39.819C735.101 38.0644 739.541 37.1871 744.447 37.1871C750.964 37.1871 756.46 38.3688 760.936 40.7321C765.448 43.0953 768.939 46.3538 771.41 50.5074C773.916 54.6611 775.42 59.3877 775.921 64.6871H759.808C759.629 61.5361 759.003 58.8684 757.928 56.6842C756.854 54.4642 755.225 52.7991 753.041 51.6891C750.892 50.5433 748.028 49.9703 744.447 49.9703C741.761 49.9703 739.416 50.4716 737.411 51.4742C735.405 52.4768 733.723 53.9987 732.362 56.0397C731.001 58.0807 729.981 60.6588 729.3 63.774C728.656 66.8535 728.334 70.47 728.334 74.6237V80.1559C728.334 84.2021 728.638 87.7649 729.247 90.8444C729.855 93.888 730.786 96.4661 732.04 98.5787C733.329 100.656 734.976 102.231 736.981 103.305C739.022 104.344 741.475 104.863 744.339 104.863C747.705 104.863 750.48 104.326 752.665 103.252C754.849 102.177 756.514 100.584 757.66 98.4713C758.841 96.3587 759.54 93.7268 759.754 90.5758ZM786.395 38.3151H815.56C821.54 38.3151 826.678 39.2102 830.975 41.0006C835.308 42.791 838.638 45.4407 840.965 48.9498C843.293 52.4589 844.457 56.7737 844.457 61.8942C844.457 66.0836 843.74 69.6823 842.308 72.6901C840.912 75.6621 838.924 78.1507 836.346 80.1559C833.804 82.1253 830.814 83.7008 827.377 84.8824L822.274 87.568H796.922L796.815 74.9996H815.668C818.496 74.9996 820.842 74.4983 822.704 73.4957C824.566 72.4931 825.962 71.0966 826.893 69.3063C827.86 67.5159 828.343 65.4391 828.343 63.0758C828.343 60.5693 827.878 58.403 826.947 56.5768C826.016 54.7506 824.601 53.3541 822.704 52.3873C820.806 51.4205 818.425 50.9371 815.56 50.9371H802.508V116.518H786.395V38.3151ZM830.116 116.518L812.284 81.6598L829.31 81.5524L847.357 115.766V116.518H830.116ZM909.339 103.95V116.518H867.713V103.95H909.339ZM872.977 38.3151V116.518H856.864V38.3151H872.977ZM903.915 70.1656V82.4117H867.713V70.1656H903.915ZM909.286 38.3151V50.9371H867.713V38.3151H909.286ZM971.214 103.95V116.518H929.588V103.95H971.214ZM934.852 38.3151V116.518H918.739V38.3151H934.852ZM965.79 70.1656V82.4117H929.588V70.1656H965.79ZM971.161 38.3151V50.9371H929.588V38.3151H971.161ZM996.727 38.3151V116.518H980.614V38.3151H996.727ZM1043.56 38.3151L1012.57 76.9332L994.686 96.1617L991.786 80.9078L1003.87 64.3649L1023.8 38.3151H1043.56ZM1025.25 116.518L1002.21 80.3707L1014.13 70.3805L1044.32 116.518H1025.25ZM1091.26 96.0543C1091.26 94.6578 1091.04 93.4046 1090.61 92.2946C1090.22 91.1487 1089.47 90.1103 1088.36 89.1793C1087.25 88.2125 1085.69 87.2636 1083.69 86.3326C1081.68 85.4017 1079.08 84.4349 1075.9 83.4323C1072.35 82.2864 1068.99 80.9974 1065.8 79.5651C1062.65 78.1328 1059.86 76.4677 1057.42 74.5699C1055.02 72.6364 1053.12 70.3984 1051.73 67.8561C1050.37 65.3138 1049.69 62.3597 1049.69 58.9938C1049.69 55.7353 1050.4 52.7812 1051.83 50.1315C1053.27 47.4459 1055.27 45.1543 1057.85 43.2565C1060.43 41.3229 1063.47 39.8369 1066.98 38.7985C1070.53 37.7601 1074.41 37.2408 1078.64 37.2408C1084.4 37.2408 1089.43 38.2793 1093.73 40.3561C1098.03 42.4329 1101.36 45.2796 1103.72 48.8961C1106.12 52.5127 1107.32 56.6484 1107.32 61.3033H1091.31C1091.31 59.0117 1090.83 57.0065 1089.86 55.2877C1088.93 53.5332 1087.5 52.1546 1085.57 51.152C1083.67 50.1494 1081.27 49.6481 1078.37 49.6481C1075.57 49.6481 1073.25 50.0778 1071.39 50.9371C1069.52 51.7607 1068.13 52.8886 1067.2 54.3209C1066.26 55.7174 1065.8 57.2929 1065.8 59.0475C1065.8 60.3724 1066.12 61.5719 1066.77 62.6461C1067.45 63.7203 1068.45 64.7229 1069.77 65.6539C1071.1 66.5849 1072.73 67.4622 1074.66 68.2858C1076.6 69.1093 1078.83 69.915 1081.38 70.7028C1085.64 71.9918 1089.38 73.442 1092.6 75.0533C1095.86 76.6647 1098.58 78.4729 1100.77 80.4781C1102.95 82.4834 1104.6 84.7571 1105.71 87.2994C1106.82 89.8418 1107.37 92.7242 1107.37 95.9469C1107.37 99.3486 1106.71 102.392 1105.38 105.078C1104.06 107.763 1102.14 110.037 1099.64 111.899C1097.13 113.761 1094.14 115.175 1090.67 116.142C1087.19 117.109 1083.31 117.592 1079.01 117.592C1075.15 117.592 1071.33 117.091 1067.57 116.089C1063.81 115.05 1060.39 113.492 1057.31 111.416C1054.27 109.339 1051.83 106.689 1050.01 103.466C1048.18 100.244 1047.27 96.4303 1047.27 92.026H1063.44C1063.44 94.4609 1063.81 96.5198 1064.56 98.2028C1065.32 99.8857 1066.37 101.246 1067.73 102.285C1069.13 103.323 1070.78 104.075 1072.67 104.541C1074.61 105.006 1076.72 105.239 1079.01 105.239C1081.81 105.239 1084.1 104.845 1085.89 104.057C1087.71 103.269 1089.06 102.177 1089.92 100.781C1090.81 99.3844 1091.26 97.8089 1091.26 96.0543ZM1169.73 116.518H1152.7L1152.81 103.95H1169.73C1173.96 103.95 1177.52 103.001 1180.42 101.103C1183.32 99.1696 1185.5 96.3587 1186.97 92.6705C1188.48 88.9824 1189.23 84.5244 1189.23 79.2965V75.483C1189.23 71.4726 1188.8 67.9456 1187.94 64.902C1187.11 61.8584 1185.88 59.2981 1184.23 57.2213C1182.58 55.1445 1180.56 53.5869 1178.16 52.5485C1175.76 51.4742 1173.01 50.9371 1169.89 50.9371H1152.38V38.3151H1169.89C1175.12 38.3151 1179.9 39.2102 1184.23 41.0006C1188.6 42.7552 1192.38 45.2796 1195.57 48.5739C1198.75 51.8681 1201.2 55.8069 1202.92 60.3903C1204.68 64.9378 1205.56 70.0045 1205.56 75.5905V79.2965C1205.56 84.8466 1204.68 89.9134 1202.92 94.4967C1201.2 99.08 1198.75 103.019 1195.57 106.313C1192.41 109.572 1188.64 112.096 1184.23 113.886C1179.86 115.641 1175.03 116.518 1169.73 116.518ZM1161.83 38.3151V116.518H1145.72V38.3151H1161.83ZM1269.74 103.95V116.518H1228.11V103.95H1269.74ZM1233.38 38.3151V116.518H1217.26V38.3151H1233.38ZM1264.32 70.1656V82.4117H1228.11V70.1656H1264.32ZM1269.69 38.3151V50.9371H1228.11V38.3151H1269.69ZM1342.79 38.3151V116.518H1326.67L1295.25 64.0963V116.518H1279.14V38.3151H1295.25L1326.73 90.7906V38.3151H1342.79ZM1390.16 38.3151V116.518H1374.1V38.3151H1390.16ZM1414.22 38.3151V50.9371H1350.41V38.3151H1414.22ZM1449.4 51.6891L1428.13 116.518H1411L1440.06 38.3151H1450.96L1449.4 51.6891ZM1467.07 116.518L1445.75 51.6891L1444.03 38.3151H1455.04L1484.26 116.518H1467.07ZM1466.11 87.4069V100.029H1424.8V87.4069H1466.11ZM1541.79 103.95V116.518H1502.42V103.95H1541.79ZM1507.63 38.3151V116.518H1491.51V38.3151H1507.63Z" fill="#084D76"/>
</svg>
