<svg width="288" height="255" viewBox="0 0 288 255" fill="none" xmlns="http://www.w3.org/2000/svg">
<path d="M243.526 20.0099C254.433 31.8851 260.937 66.8067 260.937 66.8067C260.937 66.8067 230.494 70.7769 200.747 58.1016C171 45.4263 139.115 20.0099 139.115 20.0099C139.115 20.0099 160.373 12.4291 172.642 9.60166C184.911 6.77419 192.891 3.13501 205.97 3.13501C219.05 3.135 232.62 8.13462 243.526 20.0099Z" fill="#5FB0E1" stroke="#5FB0E1"/>
<path d="M76.3688 3.17611C60.4217 0.305 44.5013 -1.45959 26.5954 9.45188C19.8219 13.5795 14.0891 18.6303 7.72402 31.7964C1.03634 45.6297 0.31817 61.789 1.42337 71.5162C1.42337 71.5162 21.8051 86.7301 44.5783 94.9006C67.3514 103.071 97.5766 108.999 97.5766 108.999C147.445 120.095 173.351 113.76 207.944 111.379C207.944 111.379 235.657 106.626 254.44 98.2329C273.224 89.8403 286.679 73.9875 286.679 73.9875C286.679 73.9875 285.431 75.3781 262.262 80.866C239.092 86.3538 211.411 79.3162 185.438 66.3667C159.464 53.4173 150.931 44.6799 131.12 31.3089C111.308 17.9379 92.3159 6.04721 76.3688 3.17611Z" fill="#3395D0" stroke="#3395D0"/>
<path d="M141.581 131.278C73.611 131.278 3.9285 91.2297 3.9285 91.2297C3.9285 91.2297 2.65649 97.999 3.9285 102.014C5.23413 106.135 8.51015 108.974 10.3784 111.009C11.2452 111.954 31.1867 126.274 69.8364 142.199C114.532 160.616 143.383 162.653 143.383 162.653C143.383 162.653 170.519 166.545 187.991 166.203C204.712 165.875 225.132 164.661 240.768 158.729L256.466 109.113C243.907 115.393 209.552 131.278 141.581 131.278Z" fill="#1A75AC" stroke="#1A75AC"/>
<path d="M29.1126 186.42C18.6912 161.483 7.78198 120.582 7.78198 120.582C7.78198 120.582 29.9179 137.029 59.445 152.33C88.9721 167.63 107.194 171.657 107.194 171.657C107.194 171.657 142.926 182.662 170.845 184.004C198.763 185.346 235.534 179.709 235.534 179.709C235.534 179.709 230.702 195.278 218.891 217.289C207.08 239.3 197.685 246.74 197.685 246.74C197.685 246.74 192.891 251.398 184.532 251.38C176.174 251.361 170.845 246.74 170.845 246.74C170.845 246.74 163.595 243.058 156.348 231.248C149.1 219.437 139.168 219.437 139.168 219.437C139.168 219.437 130.31 219.437 120.915 231.248C111.52 243.058 107.194 246.74 107.194 246.74C107.194 246.74 102.049 253.527 88.9721 253.527C75.8953 253.527 61.0554 236.885 61.0554 236.885C61.0554 236.885 44.1446 222.389 29.1126 186.42Z" fill="#084D76" stroke="#084D76"/>
</svg>
